<svg width="28" height="28" viewBox="0 0 28 28" fill="none" xmlns="http://www.w3.org/2000/svg">
<path d="M23.546 17.6064C22.0756 16.1361 20.3254 15.0476 18.4159 14.3887C20.4611 12.9801 21.8047 10.6227 21.8047 7.95708C21.8047 3.65358 18.3035 0.15239 14 0.15239C9.69651 0.15239 6.19531 3.65358 6.19531 7.95708C6.19531 10.6227 7.53893 12.9801 9.58413 14.3887C7.67462 15.0476 5.92447 16.1361 4.45408 17.6064C1.90426 20.1563 0.5 23.5464 0.5 27.1524H2.60938C2.60938 20.8716 7.71918 15.7618 14 15.7618C20.2808 15.7618 25.3906 20.8716 25.3906 27.1524H27.5C27.5 23.5464 26.0957 20.1563 23.546 17.6064ZM14 13.6524C10.8596 13.6524 8.30469 11.0975 8.30469 7.95708C8.30469 4.81664 10.8596 2.26176 14 2.26176C17.1404 2.26176 19.6953 4.81664 19.6953 7.95708C19.6953 11.0975 17.1404 13.6524 14 13.6524Z" fill="#9A9FAD"/>
</svg>
