<svg width="34" height="34" viewBox="0 0 34 34" fill="none" xmlns="http://www.w3.org/2000/svg">
<circle cx="17" cy="17" r="17" fill="#FDEEE8"/>
<path d="M21.321 16.2558C22.038 15.6236 22.4917 14.6993 22.4917 13.6705C22.4917 12.2269 21.5991 10.9884 20.3373 10.4759V9.36175C20.3373 8.88585 19.9515 8.5 19.4755 8.5C18.9996 8.5 18.6138 8.88585 18.6138 9.36175V10.2235H16.8903V9.36175C16.8903 8.88585 16.5045 8.5 16.0285 8.5C15.5526 8.5 15.1668 8.88585 15.1668 9.36175V10.2235H13.4433C12.9673 10.2235 12.5815 10.6094 12.5815 11.0853C12.5815 11.5612 12.9673 11.947 13.4433 11.947H14.305V16.2558V20.5645H13.4433C12.9673 20.5645 12.5815 20.9504 12.5815 21.4263C12.5815 21.9022 12.9673 22.288 13.4433 22.288H15.1668V23.1498C15.1668 23.6257 15.5526 24.0115 16.0285 24.0115C16.5045 24.0115 16.8903 23.6257 16.8903 23.1498V22.288H18.6138V23.1498C18.6138 23.6257 18.9996 24.0115 19.4755 24.0115C19.9515 24.0115 20.3373 23.6257 20.3373 23.1498V22.0356C21.5991 21.5231 22.4917 20.2847 22.4917 18.841C22.4917 17.8123 22.038 16.8879 21.321 16.2558ZM16.0285 11.947H19.0446C19.995 11.947 20.7681 12.7202 20.7681 13.6705C20.7681 14.6209 19.995 15.394 19.0446 15.394H16.0285V11.947ZM19.0446 20.5645H16.0285V17.1175H19.0446C19.995 17.1175 20.7681 17.8907 20.7681 18.841C20.7681 19.7914 19.995 20.5645 19.0446 20.5645Z" fill="#F4885A"/>
</svg>
