<svg width="202" height="44" viewBox="0 0 202 44" fill="none" xmlns="http://www.w3.org/2000/svg">
<path d="M23 0.5L1 22V43.5H201V22L171.5 18L163.5 0.5L153 18H128.5L117 0.5L78.5 31.5L60.5 10.5H37.5L23 0.5Z" fill="url(#paint0_linear_1_211)"/>
<path d="M1 21.5L19.4668 3.45287C21.5192 1.44715 24.7045 1.1755 27.0668 2.80471L35.9619 8.93928C36.9636 9.63007 38.1516 10 39.3683 10H57.7404C59.4919 10 61.156 10.7654 62.2959 12.0953L74.7134 26.5823C76.8232 29.0438 80.5068 29.3841 83.0319 27.3509L111.852 4.14489C114.611 1.92337 118.684 2.56293 120.63 5.52316L126.722 14.7951C127.832 16.4834 129.717 17.5 131.737 17.5H149.603C151.71 17.5 153.663 16.3942 154.748 14.587L157.636 9.77256C160.121 5.63155 166.23 5.97294 168.238 10.365L170.125 14.4932C170.981 16.365 172.737 17.6677 174.776 17.9442L201 21.5" stroke="#FBE591" stroke-width="1.5"/>
<defs>
<linearGradient id="paint0_linear_1_211" x1="101" y1="0.5" x2="101" y2="43.5" gradientUnits="userSpaceOnUse">
<stop stop-color="#FAF1C7" stop-opacity="0.05"/>
<stop offset="1" stop-color="#FCF8E0" stop-opacity="0"/>
</linearGradient>
</defs>
</svg>
