<svg width="21" height="28" viewBox="0 0 21 28" fill="none" xmlns="http://www.w3.org/2000/svg">
<path d="M19.9941 8.09357H16.8529V4.38768C16.8529 2.05234 14.9529 0.15239 12.6176 0.15239H12.3529C11.6887 0.15239 11.06 0.306448 10.5 0.580101C9.93989 0.306448 9.31116 0.15239 8.64701 0.15239C6.31167 0.15239 4.41172 2.05234 4.41172 4.38768V8.09357H1.00586L0.139526 27.1524H20.8604L19.9941 8.09357ZM12.583 1.67662C14.0426 1.67662 15.2647 2.9281 15.2647 4.38768V8.09357H12.8823V4.38768C12.8823 3.39938 12.5411 2.4898 11.9716 1.76847C11.9716 1.76847 12.0591 1.67662 12.583 1.67662ZM10.5 2.4997C10.9896 2.98035 11.2941 3.649 11.2941 4.38768V8.09357H9.70584V4.38768C9.70584 3.649 10.0103 2.98035 10.5 2.4997ZM5.99996 4.38768C5.99996 2.9281 7.18743 1.74062 8.64701 1.74062C8.77651 1.74062 8.90373 1.75042 9.02835 1.76847C8.45881 2.4898 8.1176 3.39938 8.1176 4.38768V8.09357H5.99996V4.38768ZM2.52347 9.6818H4.41172V25.5642H1.80156L2.52347 9.6818ZM5.99996 25.5642V9.6818H8.1176V11.27H9.70584V9.6818H15.2647V11.27H16.8529V9.6818H18.4764L19.1984 25.5642H5.99996Z" fill="#9A9FAD"/>
</svg>
