<svg width="51" height="51" viewBox="0 0 51 51" fill="none" xmlns="http://www.w3.org/2000/svg">
<rect opacity="0.1" width="51" height="51" rx="10" fill="#FA5F1C"/>
<path fill-rule="evenodd" clip-rule="evenodd" d="M34.1572 24.2309L31.1883 21.5401L27.2048 32.098L34.1572 24.2309ZM27.0667 27.1756L29.918 19.6221C29.918 19.6203 29.9189 19.6184 29.9199 19.6165L30.6441 17.6976L27.0667 16.3135V27.1756ZM25.4231 31.5333H19.937L24.724 33.386L25.4231 31.5333ZM24.4057 35.2648L19.2864 33.2833L23.1019 36.7404L24.4057 35.2648ZM15.8667 29.6667H25.2V12.8667H15.8667V29.6667ZM36.1667 24.776L23.8747 38.6845C23.7095 38.8721 23.4761 38.9851 23.2269 38.9981C23.2101 38.9991 23.1924 39 23.1747 39C22.9441 39 22.7201 38.9141 22.5484 38.7583L14.3071 31.2897C14.3033 31.2869 14.3024 31.2823 14.2977 31.2785C14.2931 31.2739 14.2865 31.2711 14.2828 31.2664C14.2277 31.2123 14.1923 31.1451 14.1512 31.0797C14.1307 31.0461 14.1008 31.0172 14.0849 30.9827C14.0831 30.978 14.0803 30.9761 14.0793 30.9724C14.0588 30.9267 14.0579 30.8735 14.0457 30.8249C14.0439 30.8193 14.0429 30.8128 14.0411 30.8063C14.028 30.7484 14.0047 30.6943 14.0028 30.6355C14.0019 30.628 14.0028 30.6205 14.0028 30.6131C14.0028 30.6084 14 30.6047 14 30.6V11.9333C14 11.4172 14.4181 11 14.9333 11H26.1333C26.6495 11 27.0667 11.4172 27.0667 11.9333V14.3115L32.1804 16.2901C32.6592 16.4749 32.8981 17.0116 32.7171 17.4904L31.8976 19.6623L36.0939 23.4665C36.4719 23.81 36.5045 24.3933 36.1667 24.776ZM19.6 19.8667C19.6 20.1243 19.8091 20.3333 20.0667 20.3333H21C22.2871 20.3333 23.3333 21.3796 23.3333 22.6667C23.3333 23.7941 22.5307 24.7359 21.4667 24.9524V25.9333C21.4667 26.4495 21.0495 26.8667 20.5333 26.8667C20.0181 26.8667 19.6 26.4495 19.6 25.9333V25H18.6667C18.1515 25 17.7333 24.5828 17.7333 24.0667C17.7333 23.5505 18.1515 23.1333 18.6667 23.1333H21.0009C21.2576 23.1333 21.4667 22.9243 21.4667 22.6667C21.4667 22.41 21.2576 22.2 21 22.2H20.0667C18.7805 22.2 17.7333 21.1537 17.7333 19.8667C17.7333 18.7392 18.5369 17.7975 19.6 17.5809V16.6C19.6 16.0839 20.0181 15.6667 20.5333 15.6667C21.0495 15.6667 21.4667 16.0839 21.4667 16.6V17.5333H22.4C22.9161 17.5333 23.3333 17.9505 23.3333 18.4667C23.3333 18.9828 22.9161 19.4 22.4 19.4H20.0667C19.8091 19.4 19.6 19.61 19.6 19.8667Z" fill="#FA5F1C"/>
</svg>
