<svg width="23" height="28" viewBox="0 0 23 28" fill="none" xmlns="http://www.w3.org/2000/svg">
<path fill-rule="evenodd" clip-rule="evenodd" d="M20.1572 13.2309L17.1883 10.5401L13.2048 21.098L20.1572 13.2309ZM13.0667 16.1756L15.918 8.62213C15.918 8.62026 15.9189 8.61839 15.9199 8.61653L16.6441 6.69759L13.0667 5.31346V16.1756ZM11.4231 20.5333H5.93695L10.724 22.386L11.4231 20.5333ZM10.4057 24.2648L5.2864 22.2833L9.10187 25.7404L10.4057 24.2648ZM1.86667 18.6667H11.2V1.86667H1.86667V18.6667ZM22.1667 13.776L9.87467 27.6845C9.70947 27.8721 9.47613 27.9851 9.22693 27.9981C9.21013 27.9991 9.1924 28 9.17467 28C8.94413 28 8.72013 27.9141 8.5484 27.7583L0.307067 20.2897C0.303333 20.2869 0.3024 20.2823 0.297733 20.2785C0.293067 20.2739 0.286533 20.2711 0.2828 20.2664C0.227733 20.2123 0.192267 20.1451 0.1512 20.0797C0.130667 20.0461 0.1008 20.0172 0.0849333 19.9827C0.0830667 19.978 0.0802667 19.9761 0.0793333 19.9724C0.0588 19.9267 0.0578667 19.8735 0.0457333 19.8249C0.0438667 19.8193 0.0429333 19.8128 0.0410667 19.8063C0.028 19.7484 0.00466667 19.6943 0.0028 19.6355C0.00186667 19.628 0.0028 19.6205 0.0028 19.6131C0.0028 19.6084 0 19.6047 0 19.6V0.933333C0 0.4172 0.418133 0 0.933333 0H12.1333C12.6495 0 13.0667 0.4172 13.0667 0.933333V3.31147L18.1804 5.29013C18.6592 5.47493 18.8981 6.0116 18.7171 6.4904L17.8976 8.66227L22.0939 12.4665C22.4719 12.81 22.5045 13.3933 22.1667 13.776ZM5.6 8.86667C5.6 9.12427 5.80907 9.33333 6.06667 9.33333H7C8.28707 9.33333 9.33333 10.3796 9.33333 11.6667C9.33333 12.7941 8.53067 13.7359 7.46667 13.9524V14.9333C7.46667 15.4495 7.04947 15.8667 6.53333 15.8667C6.01813 15.8667 5.6 15.4495 5.6 14.9333V14H4.66667C4.15147 14 3.73333 13.5828 3.73333 13.0667C3.73333 12.5505 4.15147 12.1333 4.66667 12.1333H7.00093C7.2576 12.1333 7.46667 11.9243 7.46667 11.6667C7.46667 11.41 7.2576 11.2 7 11.2H6.06667C4.78053 11.2 3.73333 10.1537 3.73333 8.86667C3.73333 7.7392 4.53693 6.79747 5.6 6.58093V5.6C5.6 5.08387 6.01813 4.66667 6.53333 4.66667C7.04947 4.66667 7.46667 5.08387 7.46667 5.6V6.53333H8.4C8.91613 6.53333 9.33333 6.95053 9.33333 7.46667C9.33333 7.9828 8.91613 8.4 8.4 8.4H6.06667C5.80907 8.4 5.6 8.61 5.6 8.86667Z" fill="#FA5F1C"/>
</svg>
