<svg width="202" height="44" viewBox="0 0 202 44" fill="none" xmlns="http://www.w3.org/2000/svg">
<path d="M179 0.5L201 22V43.5H1V22L30.5 18L38.5 0.5L49 18H73.5L85 0.5L123.5 31.5L141.5 10.5H164.5L179 0.5Z" fill="url(#paint0_linear_1_223)"/>
<path d="M201 21.5L182.533 3.45287C180.481 1.44715 177.296 1.1755 174.933 2.80471L166.038 8.93928C165.036 9.63007 163.848 10 162.632 10H144.26C142.508 10 140.844 10.7654 139.704 12.0953L127.287 26.5823C125.177 29.0438 121.493 29.3841 118.968 27.3509L90.1477 4.14489C87.3887 1.92337 83.3158 2.56293 81.3705 5.52316L75.2775 14.7951C74.1681 16.4834 72.2835 17.5 70.2633 17.5H52.3971C50.2896 17.5 48.3365 16.3942 47.2522 14.587L44.3635 9.77256C41.8789 5.63155 35.7695 5.97294 33.7617 10.365L31.8745 14.4932C31.0188 16.365 29.2634 17.6677 27.2239 17.9442L1 21.5" stroke="#A9D2BD" stroke-width="1.5"/>
<defs>
<linearGradient id="paint0_linear_1_223" x1="101" y1="0.5" x2="101" y2="43.5" gradientUnits="userSpaceOnUse">
<stop stop-color="#C9EAD9" stop-opacity="0.05"/>
<stop offset="1" stop-color="#D4F3E3" stop-opacity="0"/>
</linearGradient>
</defs>
</svg>
