<svg width="27" height="22" viewBox="0 0 27 22" fill="none" xmlns="http://www.w3.org/2000/svg">
<path d="M16.0418 19.6049H10.9583C10.5214 19.6049 10.1672 19.9591 10.1672 20.396C10.1672 20.8328 10.5214 21.187 10.9583 21.187H16.0418C16.4787 21.187 16.8329 20.8328 16.8329 20.396C16.8329 19.9591 16.4787 19.6049 16.0418 19.6049Z" fill="#9A9FAD"/>
<path d="M15.7248 14.7238C15.8909 14.3905 15.9848 14.0149 15.9848 13.6172C15.9848 12.2449 14.8724 11.1324 13.5 11.1324C13.1023 11.1324 12.7266 11.2264 12.3933 11.3926L8.66742 7.66653C8.35855 7.35762 7.85768 7.35762 7.54877 7.66653C7.23985 7.9754 7.23985 8.47622 7.54877 8.78519L11.2749 12.5115C11.1091 12.8446 11.0153 13.2199 11.0153 13.6172C11.0153 14.9895 12.1278 16.102 13.5001 16.102C13.8976 16.102 14.2729 16.0082 14.606 15.8423L15.4825 16.7189C15.7915 17.0278 16.2922 17.0279 16.6012 16.719C16.9101 16.4102 16.9102 15.9093 16.6013 15.6004L15.7248 14.7238ZM13.5 14.52C13.0023 14.52 12.5973 14.1151 12.5973 13.6173C12.5973 13.1195 13.0022 12.7145 13.5 12.7145C13.9979 12.7145 14.4028 13.1195 14.4028 13.6173C14.4028 14.1151 13.9978 14.52 13.5 14.52Z" fill="#9A9FAD"/>
<path d="M13.5 0.117798C6.05607 0.117798 0 6.17387 0 13.6178C0 15.9903 0.625535 18.3247 1.80905 20.3687C2.02769 20.7463 2.51084 20.8754 2.88874 20.6575C2.88889 20.6574 5.09045 19.3865 5.09045 19.3865C5.46877 19.168 5.59839 18.6843 5.37996 18.3059C5.16153 17.9276 4.67786 17.7978 4.29943 18.0164L2.80536 18.879C2.11908 17.4857 1.71276 15.9646 1.60935 14.4089H3.33281C3.76966 14.4089 4.12383 14.0547 4.12383 13.6178C4.12383 13.181 3.76966 12.8268 3.33281 12.8268H1.60893C1.71397 11.2318 2.134 9.72167 2.80763 8.35796L4.29949 9.21928C4.67791 9.43786 5.16169 9.30808 5.38001 8.92976C5.59844 8.55139 5.46882 8.06761 5.0905 7.84924L3.60049 6.98893C4.46771 5.6981 5.58035 4.58545 6.87118 3.71824L7.73139 5.20809C7.94981 5.58646 8.4336 5.71618 8.81191 5.4976C9.19023 5.27912 9.31985 4.79539 9.10143 4.41707L8.24017 2.92538C9.60388 2.2518 11.1141 1.83203 12.709 1.72683V3.45066C12.709 3.88751 13.0631 4.24168 13.5 4.24168C13.9369 4.24168 14.291 3.88751 14.291 3.45066V1.72683C15.8859 1.83203 17.3961 2.25185 18.7598 2.92538L17.8986 4.41707C17.6801 4.79539 17.8098 5.27917 18.1881 5.4976C18.5664 5.71618 19.0502 5.58646 19.2686 5.20809L20.1288 3.71824C21.4196 4.5854 22.5323 5.69804 23.3995 6.98893L21.9096 7.84913C21.5312 8.06756 21.4016 8.55129 21.62 8.92966C21.8384 9.30797 22.3221 9.43775 22.7006 9.21917L24.1924 8.35786C24.866 9.72157 25.2861 11.2317 25.3911 12.8267H23.6672C23.2303 12.8267 22.8762 13.1809 22.8762 13.6177C22.8762 14.0546 23.2303 14.4088 23.6672 14.4088H25.3907C25.2872 15.9645 24.8809 17.4856 24.1946 18.8789L22.7006 18.0163C22.3221 17.7977 21.8385 17.9275 21.62 18.3058C21.4016 18.6842 21.5312 19.168 21.9096 19.3864C21.9096 19.3864 24.1111 20.6573 24.1113 20.6574C24.4892 20.8753 24.9723 20.7462 25.1909 20.3686C26.3745 18.3247 27 15.9904 27 13.6178C27 6.17387 20.9439 0.117798 13.5 0.117798Z" fill="#9A9FAD"/>
</svg>
