<svg width="51" height="51" viewBox="0 0 51 51" fill="none" xmlns="http://www.w3.org/2000/svg">
<rect opacity="0.1" width="51" height="51" rx="10" fill="#1A55AF"/>
<path fill-rule="evenodd" clip-rule="evenodd" d="M15.201 18.4669H12.8678C12.3517 18.4669 11.9345 18.8841 11.9345 19.4002C11.9345 19.9163 12.3517 20.3335 12.8678 20.3335H13.8011V21.2668C13.8011 21.7829 14.2183 22.2001 14.7344 22.2001C15.2496 22.2001 15.6677 21.7829 15.6677 21.2668V20.2859C16.7307 20.0694 17.5343 19.1277 17.5343 18.0002C17.5343 16.7132 16.4871 15.667 15.201 15.667H14.2677C14.0101 15.667 13.8011 15.457 13.8011 15.2003C13.8011 14.9437 14.0101 14.7337 14.2677 14.7337H16.601C17.1162 14.7337 17.5343 14.3165 17.5343 13.8004C17.5343 13.2843 17.1162 12.8671 16.601 12.8671H15.6677V11.9338C15.6677 11.4177 15.2496 11.0005 14.7344 11.0005C14.2183 11.0005 13.8011 11.4177 13.8011 11.9338V12.9147C12.7371 13.1312 11.9345 14.0729 11.9345 15.2003C11.9345 16.4874 12.9807 17.5336 14.2677 17.5336H15.201C15.4577 17.5336 15.6677 17.7436 15.6677 18.0002C15.6677 18.2569 15.4577 18.4669 15.201 18.4669Z" fill="#1A55AF"/>
<path fill-rule="evenodd" clip-rule="evenodd" d="M30.6 32.4664H16.6005C16.0863 32.4664 15.6672 32.0483 15.6672 31.5331V27.253L16.874 28.4598C17.2389 28.8247 17.8288 28.8247 18.1937 28.4598C18.5586 28.0948 18.5586 27.505 18.1937 27.1401L15.3938 24.3402C15.0288 23.9752 14.439 23.9752 14.0741 24.3402L11.2742 27.1401C10.9093 27.505 10.9093 28.0948 11.2742 28.4598C11.6391 28.8247 12.2289 28.8247 12.5939 28.4598L13.8006 27.253V31.5331C13.8006 33.0768 15.0568 34.333 16.6005 34.333H30.6C31.1152 34.333 31.5333 33.9158 31.5333 33.3997C31.5333 32.8836 31.1152 32.4664 30.6 32.4664Z" fill="#1A55AF"/>
<path fill-rule="evenodd" clip-rule="evenodd" d="M34.7994 31.5331H37.1327C37.6488 31.5331 38.066 31.1159 38.066 30.5998C38.066 30.0837 37.6488 29.6665 37.1327 29.6665H36.1994V28.7332C36.1994 28.2171 35.7822 27.7999 35.2661 27.7999C34.7509 27.7999 34.3328 28.2171 34.3328 28.7332V29.7141C33.2698 29.9306 32.4662 30.8723 32.4662 31.9998C32.4662 33.2868 33.5134 34.333 34.7994 34.333H35.7327C35.9903 34.333 36.1994 34.543 36.1994 34.7997C36.1994 35.0563 35.9903 35.2663 35.7327 35.2663H33.3995C32.8843 35.2663 32.4662 35.6835 32.4662 36.1996C32.4662 36.7157 32.8843 37.1329 33.3995 37.1329H34.3328V38.0662C34.3328 38.5823 34.7509 38.9995 35.2661 38.9995C35.7822 38.9995 36.1994 38.5823 36.1994 38.0662V37.0853C37.2634 36.8688 38.066 35.9271 38.066 34.7997C38.066 33.5126 37.0198 32.4664 35.7327 32.4664H34.7994C34.5428 32.4664 34.3328 32.2564 34.3328 31.9998C34.3328 31.7431 34.5428 31.5331 34.7994 31.5331Z" fill="#1A55AF"/>
<path fill-rule="evenodd" clip-rule="evenodd" d="M38.7263 21.5403C38.3614 21.1753 37.7715 21.1753 37.4066 21.5403L36.1999 22.747V18.4669C36.1999 16.9232 34.9436 15.667 33.4 15.667H19.4004C18.8853 15.667 18.4671 16.0842 18.4671 16.6003C18.4671 17.1164 18.8853 17.5336 19.4004 17.5336H33.4C33.9142 17.5336 34.3333 17.9517 34.3333 18.4669V22.747L33.1265 21.5403C32.7616 21.1753 32.1717 21.1753 31.8068 21.5403C31.4419 21.9052 31.4419 22.495 31.8068 22.8599L34.6067 25.6598C34.9716 26.0248 35.5615 26.0248 35.9264 25.6598L38.7263 22.8599C39.0912 22.495 39.0912 21.9052 38.7263 21.5403Z" fill="#1A55AF"/>
</svg>
