<svg width="28" height="28" viewBox="0 0 28 28" fill="none" xmlns="http://www.w3.org/2000/svg">
<path fill-rule="evenodd" clip-rule="evenodd" d="M4.20103 7.4669H1.86778C1.35166 7.4669 0.934479 7.88408 0.934479 8.4002C0.934479 8.91631 1.35166 9.3335 1.86778 9.3335H2.80108V10.2668C2.80108 10.7829 3.21827 11.2001 3.73438 11.2001C4.24956 11.2001 4.66768 10.7829 4.66768 10.2668V9.2859C5.73071 9.06938 6.53429 8.12768 6.53429 7.00025C6.53429 5.71322 5.48712 4.66699 4.20103 4.66699H3.26773C3.01014 4.66699 2.80108 4.457 2.80108 4.20034C2.80108 3.94369 3.01014 3.73369 3.26773 3.73369H5.60098C6.11617 3.73369 6.53429 3.31651 6.53429 2.80039C6.53429 2.28428 6.11617 1.86709 5.60098 1.86709H4.66768V0.933789C4.66768 0.417674 4.24956 0.000488281 3.73438 0.000488281C3.21827 0.000488281 2.80108 0.417674 2.80108 0.933789V1.91469C1.73712 2.13121 0.934479 3.07292 0.934479 4.20034C0.934479 5.48737 1.98071 6.5336 3.26773 6.5336H4.20103C4.45769 6.5336 4.66768 6.74359 4.66768 7.00025C4.66768 7.2569 4.45769 7.4669 4.20103 7.4669Z" fill="#1A55AF"/>
<path fill-rule="evenodd" clip-rule="evenodd" d="M19.6 21.4664H5.60053C5.08628 21.4664 4.66723 21.0483 4.66723 20.5331V16.253L5.87399 17.4598C6.23891 17.8247 6.82875 17.8247 7.19367 17.4598C7.55859 17.0948 7.55859 16.505 7.19367 16.1401L4.39377 13.3402C4.02885 12.9752 3.439 12.9752 3.07408 13.3402L0.274179 16.1401C-0.0907419 16.505 -0.0907419 17.0948 0.274179 17.4598C0.6391 17.8247 1.22895 17.8247 1.59387 17.4598L2.80063 16.253V20.5331C2.80063 22.0768 4.05685 23.333 5.60053 23.333H19.6C20.1152 23.333 20.5333 22.9158 20.5333 22.3997C20.5333 21.8836 20.1152 21.4664 19.6 21.4664Z" fill="#1A55AF"/>
<path fill-rule="evenodd" clip-rule="evenodd" d="M23.7994 20.5331H26.1327C26.6488 20.5331 27.066 20.1159 27.066 19.5998C27.066 19.0837 26.6488 18.6665 26.1327 18.6665H25.1994V17.7332C25.1994 17.2171 24.7822 16.7999 24.2661 16.7999C23.7509 16.7999 23.3328 17.2171 23.3328 17.7332V18.7141C22.2698 18.9306 21.4662 19.8723 21.4662 20.9998C21.4662 22.2868 22.5134 23.333 23.7994 23.333H24.7327C24.9903 23.333 25.1994 23.543 25.1994 23.7997C25.1994 24.0563 24.9903 24.2663 24.7327 24.2663H22.3995C21.8843 24.2663 21.4662 24.6835 21.4662 25.1996C21.4662 25.7157 21.8843 26.1329 22.3995 26.1329H23.3328V27.0662C23.3328 27.5823 23.7509 27.9995 24.2661 27.9995C24.7822 27.9995 25.1994 27.5823 25.1994 27.0662V26.0853C26.2634 25.8688 27.066 24.9271 27.066 23.7997C27.066 22.5126 26.0198 21.4664 24.7327 21.4664H23.7994C23.5428 21.4664 23.3328 21.2564 23.3328 20.9998C23.3328 20.7431 23.5428 20.5331 23.7994 20.5331Z" fill="#1A55AF"/>
<path fill-rule="evenodd" clip-rule="evenodd" d="M27.7263 10.5403C27.3614 10.1753 26.7715 10.1753 26.4066 10.5403L25.1999 11.747V7.4669C25.1999 5.92322 23.9436 4.66699 22.4 4.66699H8.40043C7.88525 4.66699 7.46713 5.08418 7.46713 5.60029C7.46713 6.11641 7.88525 6.53359 8.40043 6.53359H22.4C22.9142 6.53359 23.3333 6.95171 23.3333 7.4669V11.747L22.1265 10.5403C21.7616 10.1753 21.1717 10.1753 20.8068 10.5403C20.4419 10.9052 20.4419 11.495 20.8068 11.8599L23.6067 14.6598C23.9716 15.0248 24.5615 15.0248 24.9264 14.6598L27.7263 11.8599C28.0912 11.495 28.0912 10.9052 27.7263 10.5403Z" fill="#1A55AF"/>
</svg>
