<svg width="51" height="51" viewBox="0 0 51 51" fill="none" xmlns="http://www.w3.org/2000/svg">
<rect opacity="0.1" width="51" height="51" rx="10" fill="#5843BE"/>
<path fill-rule="evenodd" clip-rule="evenodd" d="M25.1999 31.4002C23.4351 31.4002 21.9998 29.965 21.9998 28.2001C21.9998 26.4353 23.4351 25.0001 25.1999 25.0001C26.9648 25.0001 28.4 26.4353 28.4 28.2001C28.4 29.965 26.9648 31.4002 25.1999 31.4002ZM25.1999 23.4C22.5527 23.4 20.3998 25.5529 20.3998 28.2001C20.3998 30.8474 22.5527 33.0003 25.1999 33.0003C27.8472 33.0003 30.0001 30.8474 30.0001 28.2001C30.0001 25.5529 27.8472 23.4 25.1999 23.4Z" fill="#5843BE"/>
<path fill-rule="evenodd" clip-rule="evenodd" d="M29.8735 20.757C28.8863 20.1346 27.7687 19.7066 26.5702 19.5178L29.6431 14.6H34.084L29.8735 20.757ZM32.4 28.2004C32.4 32.1701 29.1703 35.4006 25.1998 35.4006C21.2301 35.4006 17.9996 32.1701 17.9996 28.2004C17.9996 24.2299 21.2301 21.0002 25.1998 21.0002C29.1703 21.0002 32.4 24.2299 32.4 28.2004ZM16.3156 14.6H20.7565L23.8302 19.5178C22.6309 19.7066 21.5141 20.1346 20.5261 20.757L16.3156 14.6ZM36.3073 13.4264C36.1697 13.164 35.8969 13 35.6001 13H29.1999C28.9239 13 28.6679 13.1416 28.5215 13.376L25.1998 18.6905L21.8781 13.376C21.7317 13.1416 21.4757 13 21.1997 13H14.7995C14.5027 13 14.2307 13.164 14.0923 13.4264C13.9539 13.6888 13.9723 14.0064 14.1395 14.2512L19.2541 21.7314C17.5044 23.3411 16.3996 25.6411 16.3996 28.2004C16.3996 33.0525 20.3477 37.0006 25.1998 37.0006C30.0527 37.0006 34 33.0525 34 28.2004C34 25.6411 32.8952 23.3411 31.1456 21.7314L36.2609 14.2512C36.4281 14.0064 36.4465 13.6888 36.3073 13.4264Z" fill="#5843BE"/>
</svg>
