<svg width="23" height="24" viewBox="0 0 23 24" fill="none" xmlns="http://www.w3.org/2000/svg">
<path fill-rule="evenodd" clip-rule="evenodd" d="M11.1999 18.4002C9.43506 18.4002 7.99983 16.965 7.99983 15.2001C7.99983 13.4353 9.43506 12.0001 11.1999 12.0001C12.9648 12.0001 14.4 13.4353 14.4 15.2001C14.4 16.965 12.9648 18.4002 11.1999 18.4002ZM11.1999 10.4C8.55267 10.4 6.39981 12.5529 6.39981 15.2001C6.39981 17.8474 8.55267 20.0003 11.1999 20.0003C13.8472 20.0003 16.0001 17.8474 16.0001 15.2001C16.0001 12.5529 13.8472 10.4 11.1999 10.4Z" fill="#5843BE"/>
<path fill-rule="evenodd" clip-rule="evenodd" d="M15.8735 7.757C14.8863 7.13458 13.7687 6.70657 12.5702 6.51777L15.6431 1.60004H20.084L15.8735 7.757ZM18.4 15.2004C18.4 19.1701 15.1703 22.4006 11.1998 22.4006C7.23009 22.4006 3.99961 19.1701 3.99961 15.2004C3.99961 11.2299 7.23009 8.0002 11.1998 8.0002C15.1703 8.0002 18.4 11.2299 18.4 15.2004ZM2.31558 1.60004H6.75649L9.83017 6.51777C8.63094 6.70657 7.51411 7.13458 6.52609 7.757L2.31558 1.60004ZM22.3073 0.426411C22.1697 0.164004 21.8969 0 21.6001 0H15.1999C14.9239 0 14.6679 0.141604 14.5215 0.37601L11.1998 5.69054L7.87812 0.37601C7.73172 0.141604 7.47571 0 7.1997 0H0.799539C0.502732 0 0.230725 0.164004 0.0923213 0.426411C-0.0460822 0.688818 -0.0276818 1.00643 0.139522 1.25123L5.25405 8.73142C3.50441 10.3411 2.39958 12.6411 2.39958 15.2004C2.39958 20.0525 6.34768 24.0006 11.1998 24.0006C16.0527 24.0006 20 20.0525 20 15.2004C20 12.6411 18.8952 10.3411 17.1456 8.73142L22.2609 1.25123C22.4281 1.00643 22.4465 0.688818 22.3073 0.426411Z" fill="#5843BE"/>
</svg>
