<svg width="24" height="28" viewBox="0 0 24 28" fill="none" xmlns="http://www.w3.org/2000/svg">
<path fill-rule="evenodd" clip-rule="evenodd" d="M2.66667 26.1333H4.53333V16.8H2.66667V26.1333ZM5.46665 28H1.73332C1.21719 28 0.799988 27.5828 0.799988 27.0667V15.8667C0.799988 15.3505 1.21719 14.9333 1.73332 14.9333H5.46665C5.98279 14.9333 6.39999 15.3505 6.39999 15.8667V27.0667C6.39999 27.5828 5.98279 28 5.46665 28Z" fill="#427A0A"/>
<path fill-rule="evenodd" clip-rule="evenodd" d="M11.0666 26.1333H12.9333V9.33332H11.0666V26.1333ZM13.8666 28H10.1333C9.61718 28 9.19998 27.5828 9.19998 27.0667V8.39999C9.19998 7.88386 9.61718 7.46666 10.1333 7.46666H13.8666C14.3828 7.46666 14.8 7.88386 14.8 8.39999V27.0667C14.8 27.5828 14.3828 28 13.8666 28Z" fill="#427A0A"/>
<path fill-rule="evenodd" clip-rule="evenodd" d="M19.4667 26.1333H21.3333V1.86667H19.4667V26.1333ZM22.2666 28H18.5333C18.0172 28 17.6 27.5828 17.6 27.0667V0.933333C17.6 0.4172 18.0172 0 18.5333 0H22.2666C22.7828 0 23.2 0.4172 23.2 0.933333V27.0667C23.2 27.5828 22.7828 28 22.2666 28Z" fill="#427A0A"/>
</svg>
