<svg width="51" height="51" viewBox="0 0 51 51" fill="none" xmlns="http://www.w3.org/2000/svg">
<rect opacity="0.1" width="51" height="51" rx="10" fill="#427A0A"/>
<path fill-rule="evenodd" clip-rule="evenodd" d="M15.6667 37.1333H17.5333V27.8H15.6667V37.1333ZM18.4667 39H14.7333C14.2172 39 13.8 38.5828 13.8 38.0667V26.8667C13.8 26.3505 14.2172 25.9333 14.7333 25.9333H18.4667C18.9828 25.9333 19.4 26.3505 19.4 26.8667V38.0667C19.4 38.5828 18.9828 39 18.4667 39Z" fill="#427A0A"/>
<path fill-rule="evenodd" clip-rule="evenodd" d="M24.0666 37.1333H25.9333V20.3333H24.0666V37.1333ZM26.8666 39H23.1333C22.6172 39 22.2 38.5828 22.2 38.0667V19.4C22.2 18.8839 22.6172 18.4667 23.1333 18.4667H26.8666C27.3828 18.4667 27.8 18.8839 27.8 19.4V38.0667C27.8 38.5828 27.3828 39 26.8666 39Z" fill="#427A0A"/>
<path fill-rule="evenodd" clip-rule="evenodd" d="M32.4667 37.1333H34.3333V12.8667H32.4667V37.1333ZM35.2666 39H31.5333C31.0172 39 30.6 38.5828 30.6 38.0667V11.9333C30.6 11.4172 31.0172 11 31.5333 11H35.2666C35.7828 11 36.2 11.4172 36.2 11.9333V38.0667C36.2 38.5828 35.7828 39 35.2666 39Z" fill="#427A0A"/>
</svg>
