<svg width="14" height="14" viewBox="0 0 14 14" fill="none" xmlns="http://www.w3.org/2000/svg">
<path d="M13.5526 12.7518L10.2206 9.28631C11.0773 8.26788 11.5467 6.98648 11.5467 5.65249C11.5467 2.53576 9.01093 0 5.89419 0C2.77746 0 0.241699 2.53576 0.241699 5.65249C0.241699 8.76923 2.77746 11.305 5.89419 11.305C7.06426 11.305 8.17927 10.9521 9.13258 10.2821L12.4899 13.7739C12.6302 13.9196 12.819 14 13.0212 14C13.2127 14 13.3943 13.927 13.5322 13.7943C13.8251 13.5124 13.8345 13.045 13.5526 12.7518ZM5.89419 1.47456C8.19795 1.47456 10.0721 3.34873 10.0721 5.65249C10.0721 7.95625 8.19795 9.83043 5.89419 9.83043C3.59043 9.83043 1.71626 7.95625 1.71626 5.65249C1.71626 3.34873 3.59043 1.47456 5.89419 1.47456Z" fill="#B0B3BF"/>
</svg>
