<svg width="30" height="30" viewBox="0 0 30 30" fill="none" xmlns="http://www.w3.org/2000/svg">
<path d="M15.91 29.6524H14.09C12.6179 29.6524 11.4203 28.4548 11.4203 26.9828V26.367C10.7944 26.1671 10.1864 25.9147 9.60226 25.6124L9.1659 26.0488C8.10905 27.1069 6.41611 27.0759 5.38996 26.0484L4.10359 24.7621C3.07562 23.7352 3.04605 22.0429 4.10393 20.9861L4.53995 20.5501C4.23766 19.966 3.98532 19.358 3.78533 18.7321H3.16964C1.69767 18.7321 0.5 17.5345 0.5 16.0624V14.2424C0.5 12.7703 1.69767 11.5727 3.1697 11.5727H3.78538C3.98538 10.9468 4.23772 10.3389 4.54001 9.75472L4.10365 9.31842C3.04639 8.2623 3.07556 6.56976 4.10399 5.54247L5.39046 4.25605C6.419 3.2261 8.11154 3.20038 9.16636 4.25639L9.60232 4.69235C10.1865 4.39012 10.7945 4.13773 11.4203 3.93773V3.32205C11.4203 1.85001 12.6179 0.652405 14.09 0.652405H15.91C17.3821 0.652405 18.5797 1.85001 18.5797 3.32205V3.93779C19.2055 4.13773 19.8135 4.39012 20.3977 4.69241L20.834 4.25605C21.8909 3.19789 23.5838 3.22893 24.61 4.25645L25.8964 5.54276C26.9243 6.56959 26.9539 8.26196 25.896 9.3187L25.46 9.75472C25.7623 10.3389 26.0146 10.9468 26.2146 11.5727H26.8303C28.3023 11.5727 29.5 12.7703 29.5 14.2424V16.0624C29.5 17.5345 28.3023 18.7321 26.8303 18.7321H26.2146C26.0146 19.358 25.7623 19.966 25.46 20.5501L25.8964 20.9864C26.9536 22.0426 26.9244 23.7351 25.896 24.7624L24.6095 26.0488C23.581 27.0788 21.8885 27.1045 20.8336 26.0485L20.3977 25.6125C19.8135 25.9147 19.2055 26.1671 18.5797 26.3671V26.9829C18.5797 28.4548 17.3821 29.6524 15.91 29.6524ZM9.88631 23.8281C10.6978 24.308 11.5712 24.6705 12.4822 24.9056C12.8574 25.0024 13.1195 25.3408 13.1195 25.7283V26.9828C13.1195 27.5178 13.5549 27.9532 14.09 27.9532H15.91C16.4451 27.9532 16.8805 27.5178 16.8805 26.9828V25.7283C16.8805 25.3408 17.1427 25.0024 17.5178 24.9056C18.4289 24.6705 19.3023 24.308 20.1137 23.8281C20.4476 23.6306 20.8727 23.6843 21.147 23.9586L22.0356 24.8472C22.4187 25.2308 23.034 25.2219 23.4077 24.8476L24.6949 23.5604C25.0678 23.1881 25.0802 22.5727 24.6953 22.1883L23.8063 21.2993C23.5321 21.0251 23.4784 20.5999 23.6758 20.2661C24.1557 19.4547 24.5182 18.5813 24.7533 17.6702C24.8501 17.295 25.1885 17.0329 25.5759 17.0329H26.8304C27.3654 17.0329 27.8008 16.5976 27.8008 16.0625V14.2424C27.8008 13.7073 27.3654 13.272 26.8304 13.272H25.5759C25.1885 13.272 24.8501 13.0099 24.7533 12.6347C24.5182 11.7237 24.1556 10.8503 23.6758 10.0388C23.4784 9.70499 23.5321 9.27985 23.8063 9.00559L24.6949 8.11696C25.0791 7.73328 25.0691 7.11816 24.6953 6.74484L23.4081 5.45768C23.035 5.08408 22.4197 5.07315 22.036 5.45734L21.1471 6.34632C20.8728 6.62063 20.4476 6.67432 20.1138 6.47687C19.3023 5.99696 18.4289 5.6344 17.5179 5.39929C17.1427 5.30249 16.8806 4.96412 16.8806 4.57664V3.32205C16.8806 2.78696 16.4452 2.35162 15.9101 2.35162H14.0901C13.555 2.35162 13.1196 2.78696 13.1196 3.32205V4.57652C13.1196 4.964 12.8575 5.30237 12.4823 5.39917C11.5713 5.63429 10.6979 5.99684 9.88637 6.47676C9.55242 6.67415 9.12733 6.62046 8.85308 6.3462L7.9645 5.45757C7.58138 5.074 6.96609 5.08289 6.59244 5.45717L5.30516 6.74439C4.93236 7.11674 4.91989 7.73203 5.30482 8.11651L6.1938 9.00548C6.46805 9.27974 6.52175 9.70488 6.32436 10.0387C5.84444 10.8502 5.48194 11.7236 5.24682 12.6346C5.14997 13.0098 4.8116 13.2719 4.42418 13.2719H3.1697C2.63462 13.2719 2.19922 13.7073 2.19922 14.2424V16.0624C2.19922 16.5975 2.63462 17.0329 3.1697 17.0329H4.42412C4.8116 17.0329 5.14991 17.295 5.24677 17.6701C5.48188 18.5812 5.84444 19.4546 6.3243 20.266C6.52169 20.5999 6.468 21.025 6.19374 21.2993L5.30511 22.1879C4.92097 22.5716 4.931 23.1867 5.30477 23.56L6.59193 24.8472C6.96502 25.2208 7.58036 25.2317 7.96405 24.8475L8.85296 23.9585C9.05506 23.7565 9.4755 23.5851 9.88631 23.8281Z" fill="#9A9FAD"/>
<path d="M15 21.4622C11.5207 21.4622 8.69025 18.6316 8.69025 15.1524C8.69025 11.6732 11.5207 8.84265 15 8.84265C18.4793 8.84265 21.3098 11.6732 21.3098 15.1524C21.3098 18.6316 18.4793 21.4622 15 21.4622ZM15 10.5419C12.4577 10.5419 10.3895 12.6102 10.3895 15.1524C10.3895 17.6947 12.4578 19.763 15 19.763C17.5423 19.763 19.6106 17.6947 19.6106 15.1524C19.6106 12.6102 17.5423 10.5419 15 10.5419Z" fill="#9A9FAD"/>
</svg>
