<svg width="16" height="19" viewBox="0 0 16 19" fill="none" xmlns="http://www.w3.org/2000/svg">
<path d="M7.76929 17.6916C8.81281 17.7084 9.8208 17.3168 10.5788 16.6016C9.75622 16.3034 9.10827 15.531 9.12495 14.4966C9.14454 13.282 10.145 12.3133 11.3596 12.3329C12.3922 12.3496 13.1425 13.0198 13.4152 13.8496C14.1555 13.1148 14.5799 12.1193 14.5968 11.0752L14.691 5.23276C14.7266 3.02391 12.9649 1.2044 10.756 1.16878L5.28268 1.0805C3.07383 1.04487 1.25432 2.80662 1.21869 5.01547L1.0805 13.5832C1.04488 15.7921 2.80663 17.6116 5.01548 17.6472L7.76929 17.6916Z" stroke="#9A9FAD" stroke-width="2"/>
</svg>
