<svg width="28" height="28" viewBox="0 0 28 28" fill="none" xmlns="http://www.w3.org/2000/svg">
<path d="M26.2733 13.7657V9.97086C26.2733 8.68408 25.2752 7.6376 24.0142 7.53612L20.49 1.38069C20.1635 0.811393 19.6361 0.404502 19.0051 0.235543C18.3771 0.0677359 17.7203 0.155868 17.1582 0.483027L5.07729 7.51634H2.9555C1.60182 7.51634 0.500977 8.61712 0.500977 9.97086V24.6979C0.500977 26.0516 1.60176 27.1524 2.9555 27.1524H23.8188C25.1725 27.1524 26.2733 26.0516 26.2733 24.6979V20.9031C26.986 20.6489 27.5006 19.9742 27.5006 19.1753V15.4935C27.5006 14.6946 26.986 14.0198 26.2733 13.7657ZM22.5881 7.51634H17.2397L21.2511 5.18095L22.5881 7.51634ZM20.6413 4.11594L14.8006 7.51634H12.378L20.0356 3.05796L20.6413 4.11594ZM17.776 1.54366C18.0535 1.38126 18.3776 1.33811 18.6875 1.42084C19.0009 1.50471 19.2622 1.70727 19.4246 1.99071L19.4258 1.99295L9.93899 7.51634H7.51645L17.776 1.54366ZM25.046 24.6979C25.046 25.3744 24.4953 25.9251 23.8188 25.9251H2.9555C2.27898 25.9251 1.72827 25.3744 1.72827 24.6979V9.97086C1.72827 9.29434 2.27898 8.74363 2.9555 8.74363H23.8188C24.4953 8.74363 25.046 9.29434 25.046 9.97086V13.6526H21.3643C19.334 13.6526 17.6825 15.3041 17.6825 17.3344C17.6825 19.3646 19.334 21.0161 21.3643 21.0161H25.046V24.6979ZM26.2733 19.1753C26.2733 19.5138 25.9983 19.7889 25.6597 19.7889H21.3643C20.0106 19.7889 18.9098 18.6881 18.9098 17.3344C18.9098 15.9807 20.0106 14.8799 21.3643 14.8799H25.6597C25.9982 14.8799 26.2733 15.1549 26.2733 15.4935V19.1753Z" fill="#9A9FAD"/>
<path d="M21.3635 16.1071C20.687 16.1071 20.1363 16.6578 20.1363 17.3343C20.1363 18.0109 20.687 18.5616 21.3635 18.5616C22.04 18.5616 22.5908 18.0109 22.5908 17.3343C22.5908 16.6578 22.0401 16.1071 21.3635 16.1071Z" fill="#9A9FAD"/>
</svg>
